<?xml version="1.0" encoding="utf-8"?>
<!-- Generator: Adobe Illustrator 16.0.0, SVG Export Plug-In . SVG Version: 6.00 Build 0)  -->
<!DOCTYPE svg PUBLIC "-//W3C//DTD SVG 1.1//EN" "http://www.w3.org/Graphics/SVG/1.1/DTD/svg11.dtd">
<svg version="1.1" xmlns="http://www.w3.org/2000/svg" xmlns:xlink="http://www.w3.org/1999/xlink" x="0px" y="0px" width="64px"
	 height="64px" viewBox="0 0 64 64" enable-background="new 0 0 64 64" xml:space="preserve">
<g id="Background">
</g>
<g id="Text">
	<path fill="#424654" d="M56,0H8C3.582,0,0,3.582,0,8v48c0,4.418,3.582,8,8,8h48c4.418,0,8-3.582,8-8V8C64,3.582,60.418,0,56,0z
		 M17.41,49.371l-3.422-11.508l-4.547,4.031l-1.57,7.477H1.145L8.34,15.012h6.727l-3.75,17.883l8.766-8.414h8.742l-10.008,9.047
		l5.32,15.844H17.41z M44.105,49.371l-3.422-11.508l-4.547,4.031l-1.57,7.477H27.84l7.195-34.359h6.727l-3.75,17.883l8.766-8.414
		h8.742l-10.008,9.047l5.32,15.844H44.105z M61.496,49.371H54.84l1.359-6.492h6.656L61.496,49.371z"/>
</g>
</svg>
